<?xml version="1.0" encoding="UTF-8"?><svg id="Layer_1" xmlns="http://www.w3.org/2000/svg" viewBox="0 0 729.15 157.97"><defs><style>.cls-1{fill:#e5503c;}.cls-2{fill:#ffe4c9;}.cls-3,.cls-4{fill:#232176;}.cls-4{stroke:#232176;stroke-miterlimit:10;stroke-width:1.53px;}</style></defs><path class="cls-4" d="M245.89,62.94c0-5.51,3.95-9.58,9.46-9.58s9.58,3.95,9.58,9.58v42.49c0,19.51-10.05,33.28-29.92,33.28-10.17,0-25.14-3.47-25.14-15.2,0-5.03,2.99-8.5,7.9-8.5,5.75,0,8.38,5.27,15.2,5.27,9.93,0,12.93-6.35,12.93-14.84V62.94Z"/><path class="cls-4" d="M273.42,94.78c0-26.93,16.04-42.61,40.34-42.61s40.46,15.68,40.46,42.61-16.04,44.05-40.46,44.05-40.34-17-40.34-44.05Zm62.48,0c0-14.24-8.86-23.7-22.14-23.7s-21.91,9.46-21.91,23.7,8.74,23.94,21.91,23.94,22.14-9.58,22.14-23.94Z"/><path class="cls-4" d="M408.81,84.97c0-8.62-4.31-13.89-13.05-13.89s-13.88,4.67-14.12,13.17v43.81c0,6.34-4.43,9.46-9.58,9.46s-9.57-3.11-9.57-9.46V62.1c0-5.51,3.95-8.74,8.98-8.74,4.55,0,6.82,3.11,7.78,7.3,4.31-5.03,11.01-8.5,19.51-8.5,18.55,0,29.33,12.09,29.33,33.39v42.61c0,6.1-4.55,9.34-9.69,9.34s-9.58-3.23-9.58-9.34v-43.21Z"/><g><path class="cls-1" d="M67.38,145.55c-1.13,0-1.88-.76-1.88-1.89v-7.04c0-3.23-2.06-4.73-6.49-4.73h-5.32c-.97,0-1.55-.63-1.55-1.68,0-.98,.56-1.55,1.55-1.55h5.49c4.11,0,6.03-1.52,6.03-4.77,0-4.33-4.17-5.23-7.66-5.23-5.38,0-7.29,1.17-7.29,4.48v20.52c0,1.11-.77,1.89-1.88,1.89s-1.88-.76-1.88-1.89v-21.4c0-6.37,5.31-7.24,11.06-7.24,7.26,0,11.26,2.94,11.26,8.29,0,3.37-1.65,5.82-4.49,6.83,3.06,1.06,4.95,3.47,4.95,6.48v7.04c0,1.11-.78,1.89-1.89,1.89Z"/><path class="cls-1" d="M65.91,136.63c0-4.36-3.64-5.15-6.91-5.15h-5.32c-.8,0-1.13-.5-1.13-1.26,0-.8,.42-1.13,1.13-1.13h5.49c3.27,0,6.45-.92,6.45-5.19s-3.85-5.65-8.08-5.65c-5.49,0-7.71,1.26-7.71,4.9v20.52c0,.96-.67,1.47-1.47,1.47s-1.47-.46-1.47-1.47v-21.4c0-5.19,3.43-6.83,10.64-6.83,5.49,0,10.85,1.76,10.85,7.87,0,3.94-2.26,6.32-5.82,6.83,3.56,.59,6.28,2.97,6.28,6.49v7.04c0,.96-.67,1.47-1.47,1.47s-1.47-.46-1.47-1.47v-7.04Z"/><path class="cls-1" d="M72.36,145.55c-1.07,0-1.84-.78-1.84-1.84v-17.63c0-7.03,3.66-11.06,10.05-11.06,4.47,0,9.26,2.52,9.26,6.28,0,.93-.67,1.63-1.55,1.63-1.12,0-1.62-.85-2.01-1.54-.1-.17-.19-.34-.3-.48-1.06-1.46-2.94-2.29-5.14-2.29-5.72,0-6.57,4.67-6.57,7.45v4.44h12.98c1.09,0,1.84,.74,1.84,1.8s-.76,1.84-1.84,1.84h-12.98v9.55c0,1.02-.85,1.84-1.88,1.84Z"/><path class="cls-1" d="M73.82,133.74v9.97c0,.8-.67,1.42-1.47,1.42-.84,0-1.42-.59-1.42-1.42v-17.63c0-6.16,2.93-10.64,9.63-10.64,4.31,0,8.84,2.43,8.84,5.86,0,.67-.46,1.21-1.13,1.21-1.13,0-1.47-1.13-1.97-1.84-1.13-1.55-3.1-2.47-5.49-2.47-4.94,0-6.99,3.39-6.99,7.87v4.86h13.4c.92,0,1.42,.63,1.42,1.38,0,.8-.5,1.42-1.42,1.42h-13.4Z"/><path class="cls-1" d="M113.6,146.18c-4.42,0-10.6-2.23-10.6-5.86,0-1.21,.74-2.05,1.8-2.05,.93,0,1.36,.59,1.81,1.21,.45,.62,1,1.38,2.3,1.97,1.51,.7,3.33,1.09,4.98,1.09,3.48,0,7.2-1.51,7.2-5.74,0-3.76-3.49-4.21-7.52-4.73-1.53-.2-3.12-.4-4.53-.81-3.59-1.03-5.83-3.83-5.83-7.31,0-5.67,3.98-8.92,10.93-8.92,1.62,0,4.7,.22,7.17,1.69,1.58,.97,3.18,2.72,3.18,4.21,0,1.23-.74,2.05-1.84,2.05-.98,0-1.4-.59-1.88-1.27-.46-.65-1.03-1.46-2.35-2.22-.99-.55-2.72-.91-4.4-.91-3.28,0-7.12,1.33-7.12,5.07,0,4.11,3.68,4.65,7.93,5.28,4.63,.68,9.87,1.45,9.87,7.7,0,5.8-4.36,9.55-11.1,9.55Z"/><path class="cls-1" d="M113.6,145.76c-4.23,0-10.18-2.09-10.18-5.44,0-.84,.46-1.63,1.38-1.63,1.51,0,1.26,1.93,3.94,3.14,1.55,.71,3.43,1.13,5.15,1.13,3.81,0,7.62-1.76,7.62-6.16,0-5.7-7.33-4.48-12.35-5.95-3.22-.92-5.53-3.43-5.53-6.91,0-6.41,5.19-8.5,10.51-8.5,2.35,0,4.98,.46,6.95,1.63,1.51,.92,2.97,2.55,2.97,3.85,0,.92-.5,1.63-1.42,1.63-1.55,0-1.26-1.84-4.02-3.43-1.13-.63-2.97-.96-4.61-.96-3.35,0-7.54,1.38-7.54,5.49,0,9.38,17.8,1.72,17.8,12.98,0,6.03-4.73,9.13-10.68,9.13Z"/><path class="cls-1" d="M162.05,146.18c-8.37,0-13.78-6.21-13.78-15.83s5.28-15.33,13.78-15.33,13.86,5.87,13.86,15.33-5.44,15.83-13.86,15.83Zm0-27.43c-6.25,0-10.13,4.44-10.13,11.6s3.98,11.98,10.13,11.98,10.22-4.7,10.22-11.98-3.91-11.6-10.22-11.6Z"/><path class="cls-1" d="M148.69,130.35c0-9.42,5.28-14.91,13.36-14.91s13.44,5.49,13.44,14.91-5.32,15.41-13.44,15.41-13.36-5.95-13.36-15.41Zm24,0c0-7.5-4.23-12.02-10.64-12.02s-10.55,4.52-10.55,12.02,4.19,12.4,10.55,12.4,10.64-4.86,10.64-12.4Z"/><path class="cls-1" d="M10.59,146.18c-4.42,0-10.59-2.23-10.59-5.86,0-1.21,.74-2.05,1.8-2.05,.93,0,1.36,.59,1.81,1.2,.45,.62,1,1.39,2.3,1.97,1.51,.7,3.33,1.09,4.98,1.09,3.48,0,7.2-1.51,7.2-5.74,0-3.76-3.49-4.21-7.52-4.73-1.53-.2-3.12-.4-4.53-.81-3.59-1.03-5.83-3.83-5.83-7.31,0-5.67,3.98-8.92,10.93-8.92,1.62,0,4.69,.22,7.17,1.69,1.58,.97,3.18,2.72,3.18,4.21,0,1.23-.74,2.05-1.84,2.05-.98,0-1.4-.59-1.88-1.27-.46-.65-1.03-1.46-2.35-2.22-.99-.55-2.72-.91-4.4-.91-3.29,0-7.12,1.33-7.12,5.07,0,4.11,3.68,4.65,7.93,5.28,4.63,.68,9.87,1.45,9.87,7.7,0,5.8-4.36,9.55-11.1,9.55Z"/><path class="cls-1" d="M10.6,145.76c-4.23,0-10.18-2.09-10.18-5.44,0-.84,.46-1.63,1.38-1.63,1.51,0,1.26,1.93,3.94,3.14,1.55,.71,3.43,1.13,5.15,1.13,3.81,0,7.62-1.76,7.62-6.16,0-5.7-7.33-4.48-12.35-5.95-3.22-.92-5.53-3.43-5.53-6.91,0-6.41,5.19-8.5,10.51-8.5,2.35,0,4.98,.46,6.95,1.63,1.51,.92,2.97,2.55,2.97,3.85,0,.92-.5,1.63-1.42,1.63-1.55,0-1.26-1.84-4.02-3.43-1.13-.63-2.97-.96-4.61-.96-3.35,0-7.54,1.38-7.54,5.49,0,9.38,17.8,1.72,17.8,12.98,0,6.03-4.73,9.13-10.68,9.13Z"/><path class="cls-1" d="M33.96,146.18c-7.51,0-11.47-4.23-11.47-12.23v-16.54c0-1.08,.77-1.84,1.88-1.84,.94,0,1.89,.63,1.89,1.84v16.63c0,5.58,2.52,8.29,7.71,8.29s7.62-2.71,7.62-8.29v-16.63c0-1.21,.93-1.84,1.84-1.84s1.89,.63,1.89,1.84v16.54c0,7.89-4.03,12.23-11.35,12.23Z"/><path class="cls-1" d="M42,117.41c0-.92,.67-1.42,1.42-1.42s1.47,.5,1.47,1.42v16.54c0,7.54-3.64,11.81-10.93,11.81s-11.06-4.27-11.06-11.81v-16.54c0-.92,.67-1.42,1.47-1.42,.75,0,1.47,.5,1.47,1.42v16.63c0,5.9,2.76,8.71,8.12,8.71s8.04-2.76,8.04-8.71v-16.63Z"/><path class="cls-1" d="M145.81,145.55c-1.11,0-1.88-.78-1.88-1.89v-11.31h-14.82v11.31c0,1.13-.77,1.89-1.93,1.89s-1.84-.76-1.84-1.89v-26.26c0-1.07,.77-1.84,1.84-1.84s1.93,.77,1.93,1.84v11.31h14.82v-11.31c0-1.05,.81-1.84,1.88-1.84s1.88,.79,1.88,1.84v26.26c0,1.11-.77,1.89-1.88,1.89Z"/><path class="cls-1" d="M144.34,131.94h-15.66v11.73c0,.96-.67,1.47-1.51,1.47s-1.42-.5-1.42-1.47v-26.26c0-.88,.63-1.42,1.42-1.42,.84,0,1.51,.54,1.51,1.42v11.73h15.66v-11.73c0-.88,.67-1.42,1.47-1.42s1.47,.54,1.47,1.42v26.26c0,.96-.67,1.47-1.47,1.47s-1.47-.5-1.47-1.47v-11.73Z"/><path class="cls-1" d="M178.76,145.55c-1.2,0-1.89-.69-1.89-1.89v-20.52c0-5.47,3.66-8.12,11.18-8.12s11.68,3.16,11.68,9.67-4.29,9.38-13.9,9.38c-1.11,0-1.8-.66-1.8-1.72s.61-1.72,1.68-1.72c7.41,0,10.3-1.66,10.3-5.9s-2.55-6.24-7.79-6.24-7.58,1.39-7.58,4.65v20.48c0,1.22-.69,1.93-1.88,1.93Z"/><path class="cls-1" d="M177.29,123.15c0-5.78,4.4-7.71,10.76-7.71s11.27,2.14,11.27,9.26c0,5.7-3.35,8.96-13.49,8.96-.96,0-1.38-.54-1.38-1.3,0-.8,.38-1.3,1.26-1.3,6.87,0,10.72-1.34,10.72-6.32s-3.52-6.66-8.21-6.66c-5.4,0-8,1.47-8,5.07v20.48c0,1.01-.5,1.51-1.47,1.51s-1.47-.5-1.47-1.47v-20.52Z"/></g><path class="cls-1" d="M674.7,14.13l-.12-.15c-.86-1.1-4.6-2.9-8.6-3.74C617.12-.02,564.19-.94,514.67,7.4c-.31-1.22-1.02-2.91-2.65-4.39-2.7-2.44-6.91-3.4-12.51-2.86-.33,.03-.59,.3-.62,.63s.2,.64,.52,.72c.02,0,2.15,.54,3.03,2.46,.69,1.5,.44,3.47-.73,5.85-2.98,.61-5.94,1.24-8.89,1.92l-1.3,.3c-1.15,.26-2.21,.78-3.05,1.51-.31,.27-1.24,1.07-.86,1.93,.19,.42,.62,.81,2.14,.81,.51,0,1.13-.04,1.92-.14,.88-.12,1.77-.22,2.66-.29,12.78-1.06,25.24-1.86,37.23-2.45,.57-.03,1.14-.06,1.71-.08,1.02-.05,2.04-.1,3.05-.14,.57-.03,1.15-.05,1.72-.08,42.91-1.86,79.25-1.06,101.68-.1,.58,.02,1.15,.05,1.72,.07,1.18,.05,2.33,.11,3.43,.16,.58,.03,1.16,.06,1.72,.08,8.86,.44,14.62,.86,16.57,1.01l.91,.07c1.72,.13,3.5,.26,5.34,.54,1.73,.26,2.9,.49,3.68,.64,1.24,.24,1.65,.32,1.96-.17,.29-.47-.03-.87-.33-1.25Z"/><g><path class="cls-2" d="M527.14,43.41h-41.29c-.43,0-.83,.31-1.05,.81h0s-8.58,19.58-8.58,19.58c-.26,.6-.21,1.32,.14,1.85,.14,.21,.44,.56,.92,.56h49.88c.66,0,1.21-.74,1.21-1.61v-19.58c0-.87-.56-1.61-1.21-1.61Z"/><path class="cls-2" d="M676.83,44.22c-.22-.5-.62-.81-1.05-.81h-41.29c-.66,0-1.21,.74-1.21,1.61v19.58c0,.87,.56,1.61,1.21,1.61h49.88c.48,0,.78-.35,.92-.56,.34-.53,.4-1.25,.14-1.85l-8.58-19.58Z"/><path class="cls-2" d="M604.82,43.41h-47.47c-.66,0-1.21,.74-1.21,1.61v19.58c0,.87,.56,1.61,1.21,1.61h47.47c.66,0,1.21-.74,1.21-1.61v-19.58c0-.87-.56-1.61-1.21-1.61Z"/><path class="cls-2" d="M715.74,44.86l-1.1,.4-6.8,2.45c-.62,.22-1.01,1.05-.88,1.87l2.55,16.39c.11,.71,.59,1.26,1.13,1.29l11.96,.71,1.38,.08c-1.44-6.81-4.08-14.24-8.24-23.2Z"/><polygon class="cls-2" points="542.86 125.87 542.86 128.21 542.86 128.23 544.98 128.23 547.05 128.23 547.05 125.9 547.05 37.14 542.86 37.14 542.86 125.87"/><polygon class="cls-2" points="613.76 126.45 613.76 128.79 613.76 128.81 615.87 128.81 617.92 128.81 617.95 128.81 617.95 128.81 617.95 126.45 617.95 37.14 613.76 37.14 613.76 126.45"/><path class="cls-2" d="M689.81,37.14h-5.17c20.9,27.5,17.47,68.71,16.07,79.9,.94-.34,1.97-.55,3.09-.63h.17s1.05,0,1.05,0c.63-5.27,1.44-14.97,.8-26.61-.82-14.95-4.32-35.76-16-52.66Z"/><path class="cls-2" d="M642.23,23.25h1.62c1.13,0,2.1-.69,2.52-1.67,.14-.33,.22-.69,.22-1.07V12.3c0-.13-.01-.26-.03-.39-.15-.92-.83-1.67-1.76-1.91l-2.01-.5c-.74-.18-1.51-.02-2.11,.45-.52,.4-.83,.99-.91,1.63-.01,.1-.04,.21-.04,.31v8.85c0,.29,.06,.57,.15,.83,.34,.97,1.26,1.67,2.35,1.67Z"/><path class="cls-2" d="M535.7,9.4l-2.12,.25c-1.18,.14-2.08,1.17-2.06,2.35,0,.02,0,.03,0,.05l.02,.64,.02,.69,.21,5.85,.07,1.94c0,.14,.02,.27,.05,.4,.22,.99,1.09,1.72,2.14,1.72h1.85c1.04,0,1.91-.74,2.12-1.72,.03-.15,.05-.3,.05-.45V11.49c0-.6-.26-1.17-.71-1.57-.45-.4-1.05-.59-1.64-.52Z"/><path class="cls-1" d="M461.61,117.86c-1.58,0-5.8,.52-7.78,2.66-.17,.19-.33,.38-.47,.59-.41,.64-.48,1.52-.19,2.35l1.33,3.85h18.45c.2,0,.39-.11,.49-.28l1.02-1.73,4.18-7.06c.1-.16,.08-.3,.04-.38h-17.06Z"/><path class="cls-1" d="M723.79,124.07c-.29-.66-.73-1.39-1.37-2.23-.1-.13-.22-.24-.35-.34-.34-.26-.75-.41-1.18-.41h-16.83c-1.61,.13-2.78,.65-3.58,1.58-1.01,1.18-1.36,2.93-1.45,4.47-.05,.81-.02,1.57,.02,2.16,0,.07,.03,.12,.05,.18,.12,.42,.51,.73,.97,.73h18.33c1.39,0,2.68-.37,3.73-1.01,.22-.13,.44-.26,.63-.41,.69-.55,2.3-1.86,1.02-4.73Z"/><path class="cls-1" d="M707.46,30.92c-3.85-4.44-9.43-6.99-15.31-6.99h-212.28c-5.92,0-11.72,2.05-16.33,5.78l-3.4,2.75h248.66l-1.33-1.54Z"/><path class="cls-3" d="M725.37,118.16c1.33-5.51,2.68-12.56,3.35-20.56,2.05-24.28-3.16-45.92-15.03-62.73,.03-.05,.06-.1,.08-.15,.68-1.49,.44-3.19-.64-4.42l-2.13-2.45c-4.74-5.47-11.62-8.61-18.86-8.61h-45.56v1.28c0,.38-.08,.74-.22,1.07-.42,.98-1.39,1.67-2.52,1.67h-1.62c-1.09,0-2-.7-2.35-1.67-.09-.26-.15-.54-.15-.83v-1.52h-101.68v1.89c0,.15-.02,.31-.05,.45-.21,.98-1.08,1.72-2.12,1.72h-1.85c-1.05,0-1.92-.73-2.14-1.72-.03-.13-.05-.27-.05-.4l-.07-1.94h-51.9c-6.99,0-13.84,2.42-19.28,6.82l-5.85,4.73c-1.19,.96-1.63,2.52-1.12,3.97,.09,.27,.22,.51,.37,.74-1.17,3.95-4.45,15.76-6.56,30.96-2.05,14.72-3.23,35.05,1.37,53.37-.62,1.61-.66,3.43-.06,5.17l1.44,4.18c.58,1.69,2.18,2.83,3.97,2.83h18.79c1.6,0,3.12-.75,4.11-1.98l18.01,.15h.05c1.9,0,3.7-.92,4.81-2.47l4.64-6.43h24.27c.07,0,.13,.03,.17,.09l4.85,6.74c1.08,1.5,2.83,2.41,4.69,2.43l79.08,.65c2-.02,3.94-.96,5.13-2.6l4.38-6.09,24.38-.03,4.65,6.46c1.17,1.62,3.06,2.6,5.05,2.62l33.78,.28c.95,1.85,2.89,3.11,5.08,3.11h18.33c2.74,0,5.34-.87,7.31-2.46,4.16-3.36,4.32-8.39,.43-13.46-.23-.3-.5-.58-.77-.83Zm-2.6,10.64c-.19,.16-.41,.28-.63,.41-1.05,.64-2.34,1.01-3.73,1.01h-18.33c-.47,0-.85-.31-.97-.73-.02-.06-.05-.12-.05-.18-.04-.59-.07-1.35-.02-2.16,.09-1.55,.44-3.3,1.45-4.47,.8-.93,1.97-1.45,3.58-1.58h16.83c.44,0,.85,.15,1.18,.41,.13,.1,.24,.21,.35,.34,.64,.83,1.08,1.57,1.37,2.23,1.27,2.88-.34,4.18-1.02,4.73Zm-166.63-64.2v-19.58c0-.87,.56-1.61,1.21-1.61h47.47c.66,0,1.21,.74,1.21,1.61v19.58c0,.87-.56,1.61-1.21,1.61h-47.47c-.66,0-1.21-.74-1.21-1.61Zm-82.71,62.43c-.1,.17-.29,.28-.49,.28h-18.45l-1.33-3.85c-.29-.83-.21-1.71,.19-2.35,.14-.21,.3-.41,.47-.59,1.98-2.14,6.2-2.65,7.78-2.66h17.06c.03,.07,.06,.22-.04,.38l-4.18,7.06-1.02,1.73Zm2.79-63.23l8.58-19.58h0c.22-.5,.62-.81,1.05-.81h41.29c.66,0,1.21,.74,1.21,1.61v19.58c0,.87-.56,1.61-1.21,1.61h-49.88c-.48,0-.78-.35-.92-.56-.34-.53-.4-1.25-.14-1.85Zm246.39,4.17l-11.96-.71c-.55-.03-1.02-.58-1.13-1.29l-2.55-16.39c-.13-.83,.26-1.65,.88-1.87l6.8-2.45,1.1-.4c4.16,8.95,6.81,16.39,8.24,23.2l-1.38-.08Zm-32.79-30.83c11.68,16.9,15.18,37.71,16,52.66,.64,11.64-.17,21.34-.8,26.61h-1.22c-1.12,.09-2.15,.3-3.09,.64,1.41-11.19,4.84-52.4-16.07-79.9h5.17Zm-5.45,29.07h-49.88c-.66,0-1.21-.74-1.21-1.61v-19.58c0-.87,.56-1.61,1.21-1.61h41.29c.43,0,.83,.31,1.05,.81l8.58,19.58c.26,.6,.21,1.32-.14,1.85-.14,.21-.44,.56-.92,.56Zm7.79-42.29c5.88,0,11.46,2.55,15.31,6.99l1.33,1.54h-248.66l3.4-2.75c4.61-3.72,10.41-5.78,16.33-5.78h212.28Zm-149.29,104.3V37.14h4.19v91.09h-4.19Zm75.09,.58h-4.19V37.14h4.19v91.67h0Z"/></g><g><path class="cls-2" d="M639.44,131.72c-5.2,0-9.42,4.22-9.42,9.42s4.22,9.42,9.42,9.42,9.42-4.22,9.42-9.42-4.22-9.42-9.42-9.42Zm2.64,11.42h-.64v.64c0,1.1-.9,2-2,2s-2-.9-2-2v-.64h-.64c-1.1,0-2-.9-2-2s.9-2,2-2h.64v-.64c0-1.1,.9-2,2-2s2,.9,2,2v.64h.64c1.1,0,2,.9,2,2s-.9,2-2,2Z"/><path class="cls-3" d="M639.44,124.32c-9.29,0-16.82,7.53-16.82,16.82s7.53,16.82,16.82,16.82,16.82-7.53,16.82-16.82-7.53-16.82-16.82-16.82Zm0,26.25c-5.2,0-9.42-4.22-9.42-9.42s4.22-9.42,9.42-9.42,9.42,4.22,9.42,9.42-4.22,9.42-9.42,9.42Z"/><path class="cls-3" d="M642.08,139.14h-.64v-.64c0-1.1-.9-2-2-2s-2,.9-2,2v.64h-.64c-1.1,0-2,.9-2,2s.9,2,2,2h.64v.64c0,1.1,.9,2,2,2s2-.9,2-2v-.64h.64c1.1,0,2-.9,2-2s-.9-2-2-2Z"/></g><g><path class="cls-2" d="M515.8,131.72c-5.2,0-9.42,4.22-9.42,9.42s4.22,9.42,9.42,9.42,9.42-4.22,9.42-9.42-4.22-9.42-9.42-9.42Zm2.64,11.42h-.64v.64c0,1.1-.9,2-2,2s-2-.9-2-2v-.64h-.64c-1.1,0-2-.9-2-2s.9-2,2-2h.64v-.64c0-1.1,.9-2,2-2s2,.9,2,2v.64h.64c1.1,0,2,.9,2,2s-.9,2-2,2Z"/><path class="cls-3" d="M515.8,124.32c-9.29,0-16.82,7.53-16.82,16.82s7.53,16.82,16.82,16.82,16.82-7.53,16.82-16.82-7.53-16.82-16.82-16.82Zm0,26.25c-5.2,0-9.42-4.22-9.42-9.42s4.22-9.42,9.42-9.42,9.42,4.22,9.42,9.42-4.22,9.42-9.42,9.42Z"/><path class="cls-3" d="M518.43,139.14h-.64v-.64c0-1.1-.9-2-2-2s-2,.9-2,2v.64h-.64c-1.1,0-2,.9-2,2s.9,2,2,2h.64v.64c0,1.1,.9,2,2,2s2-.9,2-2v-.64h.64c1.1,0,2-.9,2-2s-.9-2-2-2Z"/></g><path class="cls-4" d="M76.96,59.14c0-27.14,16.17-42.95,40.66-42.95s40.78,15.8,40.78,42.95-16.17,44.4-40.78,44.4-40.66-17.13-40.66-44.4Zm62.97,0c0-14.35-8.93-23.89-22.32-23.89s-22.08,9.53-22.08,23.89,8.81,24.13,22.08,24.13,22.32-9.65,22.32-24.13Z"/><path class="cls-4" d="M213.37,49.25c0-8.69-4.34-14-13.15-14s-13.99,4.71-14.23,13.27v44.15c0,6.39-4.46,9.53-9.65,9.53s-9.65-3.14-9.65-9.53V26.21c0-5.55,3.98-8.81,9.05-8.81,4.58,0,6.87,3.14,7.84,7.36,4.34-5.07,11.1-8.57,19.66-8.57,18.7,0,29.56,12.19,29.56,33.66v42.95c0,6.15-4.58,9.41-9.77,9.41s-9.65-3.26-9.65-9.41V49.25Z"/><path class="cls-4" d="M70.44,92.24c0,6.31-4.54,9.97-10.1,9.97s-10.1-3.28-10.1-9.97v-15.14c0-10.85-5.18-12.12-10.85-12.12h-3.91c-3.91,0-7.07-1.77-7.07-7.95s3.28-7.19,7.07-7.19h4.04c5.68,0,10.85-1.01,10.85-8.58s-6.31-10.22-14.26-10.22c-11.11,0-14.51,2.27-14.51,8.46v52.75c0,6.31-4.54,9.97-10.1,9.97s-10.1-3.28-10.1-9.97V32.67C1.4,17.28,12.38,12.36,35.1,12.36c17.16,0,33.82,5.05,33.82,25.12,0,8.96-4.29,16.15-14.14,19.18,10.1,2.27,15.65,9.34,15.65,20.45v15.14Z"/></svg>