<svg width="1280" height="1024" viewBox="0 0 1280 1024" fill="none" xmlns="http://www.w3.org/2000/svg">
<rect width="1280" height="1024" fill="#1E1E1E"/>
<g id="Frame 1">
<rect width="1280" height="1024" fill="white"/>
<g id="custom-logo" clip-path="url(#clip0_0_1)">
<path id="r" d="M345.865 525.255C345.865 531.565 341.325 535.225 335.765 535.225C330.205 535.225 325.665 531.945 325.665 525.255V510.115C325.665 499.265 320.485 497.995 314.815 497.995H310.905C306.995 497.995 303.835 496.225 303.835 490.045C303.835 483.865 307.115 482.855 310.905 482.855H314.945C320.625 482.855 325.795 481.845 325.795 474.275C325.795 466.705 319.485 464.055 311.535 464.055C300.425 464.055 297.025 466.325 297.025 472.515V525.265C297.025 531.575 292.485 535.235 286.925 535.235C281.365 535.235 276.825 531.955 276.825 525.265V465.685C276.825 450.295 287.805 445.375 310.525 445.375C327.685 445.375 344.345 450.425 344.345 470.495C344.345 479.455 340.055 486.645 330.205 489.675C340.305 491.945 345.855 499.015 345.855 510.125V525.265L345.865 525.255Z" fill="#232176" stroke="#232176" stroke-width="1.53" stroke-miterlimit="10"/>
<path id="o1" d="M352.385 492.155C352.385 465.015 368.555 449.205 393.045 449.205C417.535 449.205 433.825 465.005 433.825 492.155C433.825 519.305 417.655 536.555 393.045 536.555C368.435 536.555 352.385 519.425 352.385 492.155V492.155ZM415.355 492.155C415.355 477.805 406.425 468.265 393.035 468.265C379.645 468.265 370.955 477.795 370.955 492.155C370.955 506.515 379.765 516.285 393.035 516.285C406.305 516.285 415.355 506.635 415.355 492.155Z" fill="#232176" stroke="#232176" stroke-width="1.53" stroke-miterlimit="10"/>
<path id="n1" d="M488.795 482.265C488.795 473.575 484.455 468.265 475.645 468.265C466.835 468.265 461.655 472.975 461.415 481.535V525.685C461.415 532.075 456.955 535.215 451.765 535.215C446.575 535.215 442.115 532.075 442.115 525.685V459.225C442.115 453.675 446.095 450.415 451.165 450.415C455.745 450.415 458.035 453.555 459.005 457.775C463.345 452.705 470.105 449.205 478.665 449.205C497.365 449.205 508.225 461.395 508.225 482.865V525.815C508.225 531.965 503.645 535.225 498.455 535.225C493.265 535.225 488.805 531.965 488.805 525.815V482.265H488.795Z" fill="#232176" stroke="#232176" stroke-width="1.53" stroke-miterlimit="10"/>
<path id="j" d="M521.315 495.955C521.315 490.445 525.265 486.375 530.775 486.375C536.285 486.375 540.355 490.325 540.355 495.955V538.445C540.355 557.955 530.305 571.725 510.435 571.725C500.265 571.725 485.295 568.255 485.295 556.525C485.295 551.495 488.285 548.025 493.195 548.025C498.945 548.025 501.575 553.295 508.395 553.295C518.325 553.295 521.325 546.945 521.325 538.455V495.955H521.315Z" fill="#232176" stroke="#232176" stroke-width="1.53" stroke-miterlimit="10"/>
<path id="o" d="M548.845 527.795C548.845 500.865 564.885 485.185 589.185 485.185C613.485 485.185 629.645 500.865 629.645 527.795C629.645 554.725 613.605 571.845 589.185 571.845C564.765 571.845 548.845 554.845 548.845 527.795V527.795ZM611.325 527.795C611.325 513.555 602.465 504.095 589.185 504.095C575.905 504.095 567.275 513.555 567.275 527.795C567.275 542.035 576.015 551.735 589.185 551.735C602.355 551.735 611.325 542.155 611.325 527.795Z" fill="#232176" stroke="#232176" stroke-width="1.53" stroke-miterlimit="10"/>
<path id="n" d="M684.235 517.985C684.235 509.365 679.925 504.095 671.185 504.095C662.445 504.095 657.305 508.765 657.065 517.265V561.075C657.065 567.415 652.635 570.535 647.485 570.535C642.335 570.535 637.915 567.425 637.915 561.075V495.115C637.915 489.605 641.865 486.375 646.895 486.375C651.445 486.375 653.715 489.485 654.675 493.675C658.985 488.645 665.685 485.175 674.185 485.175C692.735 485.175 703.515 497.265 703.515 518.565V561.175C703.515 567.275 698.965 570.515 693.825 570.515C688.685 570.515 684.245 567.285 684.245 561.175V517.965L684.235 517.985Z" fill="#232176" stroke="#232176" stroke-width="1.53" stroke-miterlimit="10"/>
<g id="small-text">
<path id="sm-s1" d="M286.015 579.195C281.595 579.195 275.425 576.965 275.425 573.335C275.425 572.125 276.165 571.285 277.225 571.285C278.155 571.285 278.585 571.875 279.035 572.485C279.485 573.105 280.035 573.875 281.335 574.455C282.845 575.155 284.665 575.545 286.315 575.545C289.795 575.545 293.515 574.035 293.515 569.805C293.515 566.045 290.025 565.595 285.995 565.075C284.465 564.875 282.875 564.675 281.465 564.265C277.875 563.235 275.635 560.435 275.635 556.955C275.635 551.285 279.615 548.035 286.565 548.035C288.185 548.035 291.255 548.255 293.735 549.725C295.315 550.695 296.915 552.445 296.915 553.935C296.915 555.165 296.175 555.985 295.075 555.985C294.095 555.985 293.675 555.395 293.195 554.715C292.735 554.065 292.165 553.255 290.845 552.495C289.855 551.945 288.125 551.585 286.445 551.585C283.155 551.585 279.325 552.915 279.325 556.655C279.325 560.765 283.005 561.305 287.255 561.935C291.885 562.615 297.125 563.385 297.125 569.635C297.125 575.435 292.765 579.185 286.025 579.185L286.015 579.195Z" fill="#E5503C"/>
<path id="sm-u" d="M309.385 579.195C301.875 579.195 297.915 574.965 297.915 566.965V550.425C297.915 549.345 298.685 548.585 299.795 548.585C300.735 548.585 301.685 549.215 301.685 550.425V567.055C301.685 572.635 304.205 575.345 309.395 575.345C314.585 575.345 317.015 572.635 317.015 567.055V550.425C317.015 549.215 317.945 548.585 318.855 548.585C319.765 548.585 320.745 549.215 320.745 550.425V566.965C320.745 574.855 316.715 579.195 309.395 579.195H309.385Z" fill="#E5503C"/>
<path id="sm-r" d="M342.805 578.565C341.675 578.565 340.925 577.805 340.925 576.675V569.635C340.925 566.405 338.865 564.905 334.435 564.905H329.115C328.145 564.905 327.565 564.275 327.565 563.225C327.565 562.245 328.125 561.675 329.115 561.675H334.605C338.715 561.675 340.635 560.155 340.635 556.905C340.635 552.575 336.465 551.675 332.975 551.675C327.595 551.675 325.685 552.845 325.685 556.155V576.675C325.685 577.785 324.915 578.565 323.805 578.565C322.695 578.565 321.925 577.805 321.925 576.675V555.275C321.925 548.905 327.235 548.035 332.985 548.035C340.245 548.035 344.245 550.975 344.245 556.325C344.245 559.695 342.595 562.145 339.755 563.155C342.815 564.215 344.705 566.625 344.705 569.635V576.675C344.705 577.785 343.925 578.565 342.815 578.565H342.805Z" fill="#E5503C"/>
<path id="sm-f" d="M347.785 578.565C346.715 578.565 345.945 577.785 345.945 576.725V559.095C345.945 552.065 349.605 548.035 355.995 548.035C360.465 548.035 365.255 550.555 365.255 554.315C365.255 555.245 364.585 555.945 363.705 555.945C362.585 555.945 362.085 555.095 361.695 554.405C361.595 554.235 361.505 554.065 361.395 553.925C360.335 552.465 358.455 551.635 356.255 551.635C350.535 551.635 349.685 556.305 349.685 559.085V563.525H362.665C363.755 563.525 364.505 564.265 364.505 565.325C364.505 566.385 363.745 567.165 362.665 567.165H349.685V576.715C349.685 577.735 348.835 578.555 347.805 578.555L347.785 578.565Z" fill="#E5503C"/>
<path id="sm-s2" d="M389.025 579.195C384.605 579.195 378.425 576.965 378.425 573.335C378.425 572.125 379.165 571.285 380.225 571.285C381.155 571.285 381.585 571.875 382.035 572.495C382.485 573.115 383.035 573.875 384.335 574.465C385.845 575.165 387.665 575.555 389.315 575.555C392.795 575.555 396.515 574.045 396.515 569.815C396.515 566.055 393.025 565.605 388.995 565.085C387.465 564.885 385.875 564.685 384.465 564.275C380.875 563.245 378.635 560.445 378.635 556.965C378.635 551.295 382.615 548.045 389.565 548.045C391.185 548.045 394.265 548.265 396.735 549.735C398.315 550.705 399.915 552.455 399.915 553.945C399.915 555.175 399.175 555.995 398.075 555.995C397.095 555.995 396.675 555.405 396.195 554.725C395.735 554.075 395.165 553.265 393.845 552.505C392.855 551.955 391.125 551.595 389.445 551.595C386.165 551.595 382.325 552.925 382.325 556.665C382.325 560.775 386.005 561.315 390.255 561.945C394.885 562.625 400.125 563.395 400.125 569.645C400.125 575.445 395.765 579.195 389.025 579.195V579.195Z" fill="#E5503C"/>
<path id="sm-h" d="M421.235 578.565C420.125 578.565 419.355 577.785 419.355 576.675V565.365H404.535V576.675C404.535 577.805 403.765 578.565 402.605 578.565C401.445 578.565 400.765 577.805 400.765 576.675V550.415C400.765 549.345 401.535 548.575 402.605 548.575C403.675 548.575 404.535 549.345 404.535 550.415V561.725H419.355V550.415C419.355 549.365 420.165 548.575 421.235 548.575C422.305 548.575 423.115 549.365 423.115 550.415V576.675C423.115 577.785 422.345 578.565 421.235 578.565V578.565Z" fill="#E5503C"/>
<path id="sm-o" d="M437.475 579.195C429.105 579.195 423.695 572.985 423.695 563.365C423.695 553.745 428.975 548.035 437.475 548.035C445.975 548.035 451.335 553.905 451.335 563.365C451.335 572.825 445.895 579.195 437.475 579.195ZM437.475 551.765C431.225 551.765 427.345 556.205 427.345 563.365C427.345 570.525 431.325 575.345 437.475 575.345C443.625 575.345 447.695 570.645 447.695 563.365C447.695 556.085 443.785 551.765 437.475 551.765Z" fill="#E5503C"/>
<path id="sm-p" d="M454.185 578.565C452.985 578.565 452.295 577.875 452.295 576.675V556.155C452.295 550.685 455.955 548.035 463.475 548.035C470.995 548.035 475.155 551.195 475.155 557.705C475.155 564.215 470.865 567.085 461.255 567.085C460.145 567.085 459.455 566.425 459.455 565.365C459.455 564.305 460.065 563.645 461.135 563.645C468.545 563.645 471.435 561.985 471.435 557.745C471.435 553.505 468.885 551.505 463.645 551.505C458.405 551.505 456.065 552.895 456.065 556.155V576.635C456.065 577.855 455.375 578.565 454.185 578.565V578.565Z" fill="#E5503C"/>
</g>
<path id="surfboard" d="M950.125 447.145L950.005 446.995C949.145 445.895 945.405 444.095 941.405 443.255C892.545 432.995 839.615 432.075 790.095 440.415C789.785 439.195 789.075 437.505 787.445 436.025C784.745 433.585 780.535 432.625 774.935 433.165C774.605 433.195 774.345 433.465 774.315 433.795C774.285 434.125 774.515 434.435 774.835 434.515C774.855 434.515 776.985 435.055 777.865 436.975C778.555 438.475 778.305 440.445 777.135 442.825C774.155 443.435 771.195 444.065 768.245 444.745L766.945 445.045C765.795 445.305 764.735 445.825 763.895 446.555C763.585 446.825 762.655 447.625 763.035 448.485C763.225 448.905 763.655 449.295 765.175 449.295C765.685 449.295 766.305 449.255 767.095 449.155C767.975 449.035 768.865 448.935 769.755 448.865C782.535 447.805 794.995 447.005 806.985 446.415C807.555 446.385 808.125 446.355 808.695 446.335C809.715 446.285 810.735 446.235 811.745 446.195C812.315 446.165 812.895 446.145 813.465 446.115C856.375 444.255 892.715 445.055 915.145 446.015C915.725 446.035 916.295 446.065 916.865 446.085C918.045 446.135 919.195 446.195 920.295 446.245C920.875 446.275 921.455 446.305 922.015 446.325C930.875 446.765 936.635 447.185 938.585 447.335L939.495 447.405C941.215 447.535 942.995 447.665 944.835 447.945C946.565 448.205 947.735 448.435 948.515 448.585C949.755 448.825 950.165 448.905 950.475 448.415C950.765 447.945 950.445 447.545 950.145 447.165L950.125 447.145Z" fill="#E5503C"/>
<g id="body">
<path d="M802.565 476.425H761.275C760.845 476.425 760.445 476.735 760.225 477.235L751.645 496.815C751.385 497.415 751.435 498.135 751.785 498.665C751.925 498.875 752.225 499.225 752.705 499.225H802.585C803.245 499.225 803.795 498.485 803.795 497.615V478.035C803.795 477.165 803.235 476.425 802.585 476.425H802.565Z" fill="#FFE4C9"/>
<path d="M952.255 477.235C952.035 476.735 951.635 476.425 951.205 476.425H909.915C909.255 476.425 908.705 477.165 908.705 478.035V497.615C908.705 498.485 909.265 499.225 909.915 499.225H959.795C960.275 499.225 960.575 498.875 960.715 498.665C961.055 498.135 961.115 497.415 960.855 496.815L952.275 477.235H952.255Z" fill="#FFE4C9"/>
<path d="M880.245 476.425H832.775C832.115 476.425 831.565 477.165 831.565 478.035V497.615C831.565 498.485 832.125 499.225 832.775 499.225H880.245C880.905 499.225 881.455 498.485 881.455 497.615V478.035C881.455 477.165 880.895 476.425 880.245 476.425Z" fill="#FFE4C9"/>
<path d="M991.165 477.875L990.065 478.275L983.265 480.725C982.645 480.945 982.255 481.775 982.385 482.595L984.935 498.985C985.045 499.695 985.525 500.245 986.065 500.275L998.025 500.985L999.405 501.065C997.965 494.255 995.325 486.825 991.165 477.865V477.875Z" fill="#FFE4C9"/>
<path d="M818.285 561.245H822.475V470.155H818.285V561.245Z" fill="#FFE4C9"/>
<path d="M889.185 561.825H893.375V470.155H889.185V561.825Z" fill="#FFE4C9"/>
<path d="M960.065 470.155C980.965 497.655 977.535 538.865 976.135 550.055C977.075 549.715 978.105 549.505 979.225 549.425H980.445C981.075 544.155 981.885 534.455 981.245 522.815C980.425 507.865 976.925 487.055 965.245 470.155H960.065Z" fill="#FFE4C9"/>
<path d="M917.655 456.265H919.275C920.405 456.265 921.375 455.575 921.795 454.595C921.935 454.265 922.015 453.905 922.015 453.525V445.315C922.015 445.185 922.005 445.055 921.985 444.925C921.835 444.005 921.155 443.255 920.225 443.015L918.215 442.515C917.475 442.335 916.705 442.495 916.105 442.965C915.585 443.365 915.275 443.955 915.195 444.595C915.185 444.695 915.155 444.805 915.155 444.905V453.755C915.155 454.045 915.215 454.325 915.305 454.585C915.645 455.555 916.565 456.255 917.655 456.255V456.265Z" fill="#FFE4C9"/>
<path d="M811.125 442.415L809.005 442.665C807.825 442.805 806.925 443.835 806.945 445.015C806.945 445.035 806.945 445.045 806.945 445.065L806.965 445.705L806.985 446.395L807.265 454.185C807.265 454.325 807.285 454.455 807.315 454.585C807.535 455.575 808.405 456.305 809.455 456.305H811.305C812.345 456.305 813.215 455.565 813.425 454.585C813.455 454.435 813.475 454.285 813.475 454.135V444.505C813.475 443.905 813.215 443.335 812.765 442.935C812.315 442.535 811.715 442.345 811.125 442.415Z" fill="#FFE4C9"/>
<path d="M737.035 550.875C735.455 550.875 731.235 551.395 729.255 553.535C729.085 553.725 728.925 553.915 728.785 554.125C728.375 554.765 728.305 555.645 728.595 556.475L729.925 560.325H748.375C748.575 560.325 748.765 560.215 748.865 560.045L749.885 558.315L754.065 551.255C754.165 551.095 754.145 550.955 754.105 550.875H737.035Z" fill="#E5503C"/>
<path d="M999.215 557.085C998.925 556.425 998.485 555.695 997.845 554.855C997.745 554.725 997.625 554.615 997.495 554.515C997.155 554.255 996.745 554.105 996.315 554.105H979.485C977.875 554.235 976.705 554.755 975.905 555.685C974.895 556.865 974.545 558.615 974.455 560.155C974.405 560.965 974.435 561.725 974.475 562.315C974.475 562.385 974.505 562.435 974.525 562.495C974.645 562.915 975.035 563.225 975.495 563.225H993.825C995.215 563.225 996.505 562.855 997.555 562.215C997.775 562.085 997.995 561.955 998.185 561.805C998.875 561.255 1000.49 559.945 999.205 557.075L999.215 557.085Z" fill="#E5503C"/>
<path d="M982.885 463.935C979.035 459.495 973.455 456.945 967.575 456.945H755.295C749.375 456.945 743.575 458.995 738.965 462.725L735.565 465.475H984.225L982.895 463.935H982.885Z" fill="#E5503C"/>
<path d="M1000.79 551.175C1002.12 545.665 1003.47 538.615 1004.14 530.615C1006.19 506.335 1000.98 484.695 989.115 467.885C989.145 467.835 989.175 467.785 989.195 467.735C989.875 466.245 989.635 464.545 988.555 463.315L986.425 460.865C981.685 455.395 974.805 452.255 967.565 452.255H922.005V453.535C922.005 453.915 921.925 454.275 921.785 454.605C921.365 455.585 920.395 456.275 919.265 456.275H917.645C916.555 456.275 915.645 455.575 915.295 454.605C915.205 454.345 915.145 454.065 915.145 453.775V452.255H813.465V454.145C813.465 454.295 813.445 454.455 813.415 454.595C813.205 455.575 812.335 456.315 811.295 456.315H809.445C808.395 456.315 807.525 455.585 807.305 454.595C807.275 454.465 807.255 454.325 807.255 454.195L807.185 452.255H755.285C748.295 452.255 741.445 454.675 736.005 459.075L730.155 463.805C728.965 464.765 728.525 466.325 729.035 467.775C729.125 468.045 729.255 468.285 729.405 468.515C728.235 472.465 724.955 484.275 722.845 499.475C720.795 514.195 719.615 534.525 724.215 552.845C723.595 554.455 723.555 556.275 724.155 558.015L725.595 562.195C726.175 563.885 727.775 565.025 729.565 565.025H748.355C749.955 565.025 751.475 564.275 752.465 563.045L770.475 563.195H770.525C772.425 563.195 774.225 562.275 775.335 560.725L779.975 554.295H804.245C804.315 554.295 804.375 554.325 804.415 554.385L809.265 561.125C810.345 562.625 812.095 563.535 813.955 563.555L893.035 564.205C895.035 564.185 896.975 563.245 898.165 561.605L902.545 555.515L926.925 555.485L931.575 561.945C932.745 563.565 934.635 564.545 936.625 564.565L970.405 564.845C971.355 566.695 973.295 567.955 975.485 567.955H993.815C996.555 567.955 999.155 567.085 1001.12 565.495C1005.28 562.135 1005.44 557.105 1001.55 552.035C1001.32 551.735 1001.05 551.455 1000.78 551.205L1000.79 551.175ZM998.195 561.815C998.005 561.975 997.785 562.095 997.565 562.225C996.515 562.865 995.225 563.235 993.835 563.235H975.505C975.035 563.235 974.655 562.925 974.535 562.505C974.515 562.445 974.485 562.385 974.485 562.325C974.445 561.735 974.415 560.975 974.465 560.165C974.555 558.615 974.905 556.865 975.915 555.695C976.715 554.765 977.885 554.245 979.495 554.115H996.325C996.765 554.115 997.175 554.265 997.505 554.525C997.635 554.625 997.745 554.735 997.855 554.865C998.495 555.695 998.935 556.435 999.225 557.095C1000.49 559.975 998.885 561.275 998.205 561.825L998.195 561.815ZM831.565 497.615V478.035C831.565 477.165 832.125 476.425 832.775 476.425H880.245C880.905 476.425 881.455 477.165 881.455 478.035V497.615C881.455 498.485 880.895 499.225 880.245 499.225H832.775C832.115 499.225 831.565 498.485 831.565 497.615ZM748.855 560.045C748.755 560.215 748.565 560.325 748.365 560.325H729.915L728.585 556.475C728.295 555.645 728.375 554.765 728.775 554.125C728.915 553.915 729.075 553.715 729.245 553.535C731.225 551.395 735.445 550.885 737.025 550.875H754.085C754.115 550.945 754.145 551.095 754.045 551.255L749.865 558.315L748.845 560.045H748.855ZM751.645 496.815L760.225 477.235C760.445 476.735 760.845 476.425 761.275 476.425H802.565C803.225 476.425 803.775 477.165 803.775 478.035V497.615C803.775 498.485 803.215 499.225 802.565 499.225H752.685C752.205 499.225 751.905 498.875 751.765 498.665C751.425 498.135 751.365 497.415 751.625 496.815L751.645 496.815ZM998.035 500.985L986.075 500.275C985.525 500.245 985.055 499.695 984.945 498.985L982.395 482.595C982.265 481.765 982.655 480.945 983.275 480.725L990.075 478.275L991.175 477.875C995.335 486.825 997.985 494.265 999.415 501.075L998.035 500.995V500.985ZM965.245 470.155C976.925 487.055 980.425 507.865 981.245 522.815C981.885 534.455 981.075 544.155 980.445 549.425H979.225C978.105 549.515 977.075 549.725 976.135 550.065C977.545 538.875 980.975 497.665 960.065 470.165H965.235L965.245 470.155ZM959.795 499.225H909.915C909.255 499.225 908.705 498.485 908.705 497.615V478.035C908.705 477.165 909.265 476.425 909.915 476.425H951.205C951.635 476.425 952.035 476.735 952.255 477.235L960.835 496.815C961.095 497.415 961.045 498.135 960.695 498.665C960.555 498.875 960.255 499.225 959.775 499.225H959.795ZM967.585 456.935C973.465 456.935 979.045 459.485 982.895 463.925L984.225 465.465H735.565L738.965 462.715C743.575 458.995 749.375 456.935 755.295 456.935H967.585ZM818.295 470.155H822.485V561.245H818.295V470.155ZM893.385 561.815H889.195V470.155H893.385V561.825V561.815Z" fill="#232176"/>
</g>
<g id="wheel1">
<path d="M791.225 564.735C786.025 564.735 781.805 568.955 781.805 574.155C781.805 579.355 786.025 583.575 791.225 583.575C796.425 583.575 800.645 579.355 800.645 574.155C800.645 568.955 796.425 564.735 791.225 564.735ZM793.865 576.155H793.225V576.795C793.225 577.895 792.325 578.795 791.225 578.795C790.125 578.795 789.225 577.895 789.225 576.795V576.155H788.585C787.485 576.155 786.585 575.255 786.585 574.155C786.585 573.055 787.485 572.155 788.585 572.155H789.225V571.515C789.225 570.415 790.125 569.515 791.225 569.515C792.325 569.515 793.225 570.415 793.225 571.515V572.155H793.865C794.965 572.155 795.865 573.055 795.865 574.155C795.865 575.255 794.965 576.155 793.865 576.155Z" fill="#FFE4C9"/>
<path d="M791.225 557.335C781.935 557.335 774.405 564.865 774.405 574.155C774.405 583.445 781.935 590.975 791.225 590.975C800.515 590.975 808.045 583.445 808.045 574.155C808.045 564.865 800.515 557.335 791.225 557.335ZM791.225 583.585C786.025 583.585 781.805 579.365 781.805 574.165C781.805 568.965 786.025 564.745 791.225 564.745C796.425 564.745 800.645 568.965 800.645 574.165C800.645 579.365 796.425 583.585 791.225 583.585Z" fill="#232176"/>
<path d="M793.855 572.155H793.215V571.515C793.215 570.415 792.315 569.515 791.215 569.515C790.115 569.515 789.215 570.415 789.215 571.515V572.155H788.575C787.475 572.155 786.575 573.055 786.575 574.155C786.575 575.255 787.475 576.155 788.575 576.155H789.215V576.795C789.215 577.895 790.115 578.795 791.215 578.795C792.315 578.795 793.215 577.895 793.215 576.795V576.155H793.855C794.955 576.155 795.855 575.255 795.855 574.155C795.855 573.055 794.955 572.155 793.855 572.155Z" fill="#232176"/>
</g>
<g id="wheel2">
<path d="M914.865 564.735C909.665 564.735 905.445 568.955 905.445 574.155C905.445 579.355 909.665 583.575 914.865 583.575C920.065 583.575 924.285 579.355 924.285 574.155C924.285 568.955 920.065 564.735 914.865 564.735ZM917.505 576.155H916.865V576.795C916.865 577.895 915.965 578.795 914.865 578.795C913.765 578.795 912.865 577.895 912.865 576.795V576.155H912.225C911.125 576.155 910.225 575.255 910.225 574.155C910.225 573.055 911.125 572.155 912.225 572.155H912.865V571.515C912.865 570.415 913.765 569.515 914.865 569.515C915.965 569.515 916.865 570.415 916.865 571.515V572.155H917.505C918.605 572.155 919.505 573.055 919.505 574.155C919.505 575.255 918.605 576.155 917.505 576.155Z" fill="#FFE4C9"/>
<path d="M914.865 557.335C905.575 557.335 898.045 564.865 898.045 574.155C898.045 583.445 905.575 590.975 914.865 590.975C924.155 590.975 931.685 583.445 931.685 574.155C931.685 564.865 924.155 557.335 914.865 557.335ZM914.865 583.585C909.665 583.585 905.445 579.365 905.445 574.165C905.445 568.965 909.665 564.745 914.865 564.745C920.065 564.745 924.285 568.965 924.285 574.165C924.285 579.365 920.065 583.585 914.865 583.585Z" fill="#232176"/>
<path d="M917.505 572.155H916.865V571.515C916.865 570.415 915.965 569.515 914.865 569.515C913.765 569.515 912.865 570.415 912.865 571.515V572.155H912.225C911.125 572.155 910.225 573.055 910.225 574.155C910.225 575.255 911.125 576.155 912.225 576.155H912.865V576.795C912.865 577.895 913.765 578.795 914.865 578.795C915.965 578.795 916.865 577.895 916.865 576.795V576.155H917.505C918.605 576.155 919.505 575.255 919.505 574.155C919.505 573.055 918.605 572.155 917.505 572.155Z" fill="#232176"/>
</g>
</g>
</g>
<defs>
<clipPath id="clip0_0_1">
<rect width="729.15" height="157.97" fill="white" transform="translate(275.425 433.015)"/>
</clipPath>
</defs>
</svg>
