<svg width="792" height="612" viewBox="0 0 792 612" fill="none" xmlns="http://www.w3.org/2000/svg">
<g id="sicilian-donkey-logo">
<rect width="792" height="612" fill="white"/>
<rect id="background" x="248.315" y="155.99" width="290.243" height="277.731" fill="#ECB99F"/>
<circle id="colorfill-white" cx="326.176" cy="344.933" r="184.522" fill="white"/>
<circle id="colorfill-black" cx="326.176" cy="344.933" r="184.522" fill="black"/>
<g id="donkey-path">
<path d="M337.05 297.799C336.899 296.099 339.248 296.202 339.31 297.99C339.372 299.777 339.061 302.547 338.822 303.98C338.569 305.5 336.395 305.572 336.633 303.655C336.659 303.447 336.686 303.235 336.713 303.021C336.938 301.259 337.186 299.314 337.05 297.799Z" fill="#17FF03"/>
<path d="M332.104 297.799C332.104 296.139 334.199 296.533 334.261 298.321C334.303 299.54 334.288 300.861 334.274 302.067C334.267 302.628 334.261 303.165 334.261 303.655C334.261 305.196 332.104 305.285 332.104 303.312V297.799Z" fill="#17FF03"/>
<path fill-rule="evenodd" clip-rule="evenodd" d="M329.495 251.018H337.171C337.171 240.837 341.915 232.524 345.5 226.243C345.723 225.851 345.943 225.465 346.157 225.089C347.914 221.989 349.733 223.755 349.912 225.506C350.215 228.47 350.568 237.446 348.731 251.485C348.267 255.036 347.918 258.503 348.35 262.75C348.889 268.055 348.14 273.985 347.787 276.733C347.603 278.168 348.578 278.528 348.785 276.915C349.352 272.505 349.787 268.774 349.787 266.909C350.986 269.041 356.719 271.548 359.064 272.104C359.467 272.2 359.865 272.326 360.269 272.454C361.79 272.936 363.41 273.449 365.819 272.505C377.908 267.769 389.454 268.291 395.69 268.724L398.091 268.89C404.29 269.316 412.157 269.858 416.339 270.323C419.079 270.628 421.524 271.153 425.334 271.971C430.625 273.108 438.547 274.809 453.542 277.269C453.858 277.321 454.166 277.367 454.468 277.411C457.252 277.823 459.455 278.15 460.738 282.309C463.555 291.45 466.807 303.943 468.319 317.831C469.267 326.542 471.9 336.869 473.1 341.569C475.236 342.817 475.217 345.18 475.207 346.436C475.206 346.517 475.206 346.593 475.206 346.664C475.206 347.87 474.534 351.436 473.716 353.372C473.589 353.673 473.25 353.575 473.27 353.248C473.367 351.625 473.41 350.873 470.115 348.729C468.641 347.769 468.149 344.704 470.511 342.617C470.334 340.42 469.36 337.174 468.269 333.54C467.146 329.797 465.9 325.643 465.274 321.802C464.873 319.337 463.563 314.578 463.071 312.964L462.979 312.663C461.534 307.919 460.502 304.53 460.502 303.147C460.502 301.971 459.398 302.636 459.214 303.435C458.866 304.951 459.053 307.593 459.184 309.433L459.214 309.863C459.617 315.687 459.164 317.749 458.757 319.599C458.701 319.856 458.645 320.108 458.593 320.366C457.081 326.961 456.485 336.31 456.643 340.113C456.951 347.522 456.258 354.01 455.633 359.851C455.444 361.625 455.26 363.341 455.113 365.003C454.876 367.685 454.752 372.372 454.752 374.37C454.752 377.796 450.641 375.945 450.593 374.37C450.295 364.563 449.842 357.138 449.517 351.808C449.286 348.013 449.119 345.28 449.119 343.505C449.119 339.514 450.22 332.012 450.827 328.122C450.014 330.051 449.552 332.241 449.34 334.284C448.933 338.224 447.39 346.978 446.297 349.665C445.471 351.695 444.444 359.5 444.161 363.236C443.878 366.972 443.483 370.757 442.835 374.644C442.61 375.996 438.222 379.417 437.454 374.37C437.255 373.066 437.186 371.854 437.052 369.517C436.772 364.656 436.213 354.925 433.633 329.36C433.251 325.57 432.638 324.039 431.01 323.844C430.012 323.725 429.286 323.86 427.879 324.121C425.78 324.511 422.166 325.182 413.877 325.709C407.011 326.146 399.032 325.975 392.278 325.831C389.32 325.768 386.597 325.709 384.306 325.709C380.095 325.641 379.646 329.23 379.646 330.191C379.646 335.353 379.148 349.686 378.738 361.45C378.593 365.63 378.459 369.486 378.363 372.49C378.241 376.261 374.42 375.303 372.918 373.52C371.956 372.379 371.782 369.275 371.521 364.614C371.051 356.237 370.299 342.827 364.184 326.728C363.797 325.709 362.316 325.709 362.316 327.577C362.316 332.945 361.865 346.789 361.611 352.308C361.458 355.62 361.305 358.386 361.173 360.785C360.985 364.214 360.837 366.894 360.788 369.349C360.705 373.52 355.996 375.276 354.975 371.856C354.71 370.968 354.22 366.555 353.457 359.682C352.437 350.494 350.929 336.908 348.817 321.464C346.77 319.578 345.508 315.983 345.27 315.222C345.21 315.028 344.895 314.499 344.506 313.844C343.672 312.442 342.494 310.459 342.719 309.935L341.891 309.653C341.787 309.708 341.674 309.77 341.553 309.836C339.961 310.702 336.95 312.341 334.655 312.175C331.169 311.924 329.208 308.899 327.089 305.632C326.381 304.54 325.656 303.421 324.85 302.37C322.744 299.622 320.795 290.704 320.471 286.281C320.408 285.424 320.404 282.652 320.4 279.453C320.395 274.754 320.388 269.136 320.189 267.324C320.141 266.877 320.095 266.434 320.049 265.992C319.783 263.42 319.522 260.898 318.709 258.054C317.757 254.722 315.408 245.307 314.98 243.26C314.264 239.84 314.618 234.201 314.843 230.607C314.912 229.513 314.969 228.609 314.98 228.014C315.049 224.307 316.853 223.702 318.709 225.873C320.566 228.044 322.986 231.909 324.535 235.324C327.105 240.988 329.026 247.333 329.495 251.018ZM329.483 291.939C329.319 292.398 329.155 292.854 328.999 293.276C327.875 296.302 327.936 299.081 327.995 300.896C328.068 303.165 330.117 308.214 333.044 309.165C335.971 310.116 338.386 308.872 339.849 307.848C341.313 306.823 342.044 304.482 342.41 302.213C342.776 299.945 342.483 298.262 342.044 296.286C341.605 294.31 339.441 289.554 338.709 288.31C337.977 287.066 336.337 286.481 334.361 286.627C332.385 286.774 331.507 287.652 330.995 288.31C330.601 288.818 330.034 290.399 329.483 291.939Z" fill="#17FF03"/>
</g>
<g id="small-text">
<path id="s" d="M383.985 332.127C384.098 331.829 384.334 331.65 384.549 331.56C385.194 331.289 385.947 332.576 385.947 331.56V330.544C385.947 330.032 385.049 329.765 384.08 329.905C383.174 330.036 382.446 330.687 382.25 331.56C382.047 332.455 382.34 333.506 382.893 334.21C383.166 334.558 383.737 334.917 384.098 335.115C385.023 335.623 385.023 336.131 384.935 336.514C384.832 336.958 384.203 336.959 383.636 336.639C383.069 336.319 382.577 335.416 382.489 335.629C382.266 336.164 382.212 336.323 381.998 337.018C381.809 337.633 383.336 338.512 384.261 338.512C385.647 338.512 386.458 337.345 386.458 336.182C386.458 335.019 386.235 334.663 385.485 334.099C384.935 333.686 384.429 333.45 384.149 333.138C383.869 332.826 383.82 332.562 383.985 332.127Z" fill="black"/>
<path id="t1" d="M386.706 330.79L386.706 330.626C386.706 330.449 386.706 330.417 388.199 330.417C388.399 330.417 388.505 330.417 388.673 330.417C390.602 330.417 390.602 330.455 390.602 330.643V330.816L390.602 330.827V331.413C390.602 331.42 390.602 331.428 390.602 331.435V331.604C390.602 331.778 390.594 331.805 389.119 331.714C389.134 332.163 389.147 332.802 389.165 333.71C389.169 333.913 389.174 334.13 389.178 334.361C389.254 338.071 389.228 338.09 389.043 338.09H388.098C387.91 338.09 387.897 338.071 388.019 334.361C388.06 333.121 388.09 332.295 388.117 331.745C386.713 331.795 386.706 331.756 386.706 331.587L386.706 331.417L386.706 331.403V330.817C386.706 330.808 386.706 330.799 386.706 330.79Z" fill="black"/>
<path id="r" fill-rule="evenodd" clip-rule="evenodd" d="M392.605 334.815C392.721 337.93 392.688 337.947 392.512 337.95L391.557 337.967C391.367 337.97 391.353 337.952 391.413 334.285C391.472 330.618 391.534 330.455 391.665 330.431C392.814 330.212 394.242 329.845 395.228 330.959C395.945 331.769 396.15 333.68 394.825 334.393C394.68 334.471 394.532 334.537 394.384 334.593C394.743 335.281 395.493 338.084 395.314 338.087C395.012 338.092 394.861 338.091 394.67 338.089C394.556 338.088 394.427 338.087 394.244 338.087C394.104 338.087 393.936 337.333 393.736 336.438C393.617 335.906 393.487 335.325 393.346 334.823C393.079 334.846 392.828 334.84 392.605 334.815ZM394.003 333.488C393.445 333.666 392.937 333.719 392.561 333.675C392.561 333.657 392.56 333.64 392.559 333.622C392.605 332.375 392.633 331.82 392.605 331.375C393.02 331.332 393.676 331.285 394.244 331.701C394.603 331.965 394.709 333.263 394.003 333.488Z" fill="black"/>
<path id="e1" d="M396.849 330.372C396.763 330.372 396.746 330.431 396.868 338.213C396.871 338.427 396.868 338.422 399.973 338.422C400.1 338.422 400.1 338.422 400.1 337.254C400.1 337.003 400.1 337.003 398.199 337.003H398.199C398.122 337.003 398.09 337.003 398.117 335.015C398.118 334.954 398.09 334.954 399.187 334.954C399.319 334.954 399.319 334.954 399.319 333.746V333.746C399.319 333.603 399.319 333.603 398.117 333.603C398.039 333.603 398.032 333.603 398.09 331.909C398.094 331.811 398.179 331.813 399.733 331.858L399.797 331.859C399.86 331.861 399.864 330.97 399.864 330.507C399.864 330.384 399.797 330.372 396.849 330.372Z" fill="black"/>
<path id="e2" d="M400.963 330.372C400.877 330.372 400.86 330.431 400.982 338.213C400.985 338.427 400.982 338.422 404.088 338.422C404.214 338.422 404.214 338.422 404.214 337.254C404.214 337.003 404.214 337.003 402.313 337.003H402.313C402.236 337.003 402.204 337.003 402.231 335.015C402.232 334.954 402.204 334.954 403.301 334.954C403.433 334.954 403.433 334.954 403.433 333.746V333.746C403.433 333.603 403.433 333.603 402.231 333.603C402.153 333.603 402.146 333.603 402.204 331.909C402.208 331.811 402.293 331.813 403.847 331.858L403.911 331.859C403.974 331.861 403.978 330.97 403.978 330.507C403.978 330.384 403.911 330.372 400.963 330.372Z" fill="black"/>
<path id="t2" d="M404.788 330.989L404.788 330.825C404.788 330.648 404.788 330.616 406.282 330.616C406.482 330.616 406.588 330.616 406.756 330.616C408.684 330.616 408.684 330.654 408.684 330.842V331.015L408.684 331.026V331.612C408.684 331.619 408.684 331.627 408.684 331.634V331.803C408.684 331.977 408.676 332.004 407.202 331.913C407.217 332.362 407.23 333.001 407.248 333.909C407.252 334.112 407.256 334.329 407.261 334.56C407.336 338.27 407.31 338.289 407.126 338.289H406.181C405.993 338.289 405.98 338.27 406.102 334.56C406.143 333.32 406.173 332.494 406.199 331.944C404.796 331.994 404.788 331.955 404.788 331.786L404.788 331.616L404.788 331.602V331.016C404.788 331.007 404.788 330.998 404.788 330.989Z" fill="black"/>
<path id="f" d="M413.387 329.868C413.063 329.868 413.151 329.867 413.151 337.83L413.151 337.83C413.151 338.295 413.151 338.302 414.257 338.302C414.557 338.302 414.557 338.293 414.578 334.923L414.578 334.921C414.579 334.863 414.553 334.863 415.587 334.863C415.711 334.863 415.714 334.838 415.714 333.7C415.714 333.565 415.714 333.565 414.581 333.565C414.507 333.565 414.479 333.565 414.557 331.317C414.56 331.225 414.641 331.227 416.106 331.269L416.166 331.27C416.226 331.272 416.229 330.431 416.229 329.995C416.229 329.879 416.166 329.868 413.387 329.868Z" fill="black"/>
<path id="o1" fill-rule="evenodd" clip-rule="evenodd" d="M416.937 333.967C416.937 331.464 417.066 329.961 419.564 329.961C421.691 329.961 421.693 332.209 421.69 334.462C421.688 336.71 421.512 338.944 419.564 338.944C416.937 338.944 416.937 336.968 416.937 333.967ZM418.396 334.063C418.396 332.51 418.423 331.607 419.312 331.607C420.2 331.607 420.2 332.598 420.2 334.317C420.2 337.187 420.2 337.347 419.312 337.347C418.54 337.347 418.396 336.458 418.396 334.063Z" fill="black"/>
<path id="o2" fill-rule="evenodd" clip-rule="evenodd" d="M422.438 333.967C422.438 331.464 422.567 329.961 425.064 329.961C427.191 329.961 427.194 332.209 427.191 334.462C427.188 336.71 427.012 338.944 425.064 338.944C422.438 338.944 422.438 336.968 422.438 333.967ZM423.897 334.063C423.897 332.51 423.924 331.607 424.813 331.607C425.701 331.607 425.701 332.598 425.701 334.317C425.701 337.187 425.701 337.347 424.813 337.347C424.04 337.347 423.897 336.458 423.897 334.063Z" fill="black"/>
<path id="d" fill-rule="evenodd" clip-rule="evenodd" d="M428.124 338.724C431.755 338.724 431.62 338.304 431.755 334.451C431.89 330.598 431.186 329.318 428.124 329.668C427.948 329.688 427.921 329.691 427.945 334.13C427.945 338.698 427.947 338.724 428.124 338.724ZM429.162 337.337C430.271 337.337 430.47 336.608 430.47 334.451C430.47 332.362 430.393 331.316 429.162 330.982C429.162 331.833 429.157 332.495 429.162 334.188C429.168 336.117 429.162 336.926 429.162 337.337Z" fill="black"/>
</g>
<g id="lines-black">
<path id="line-main-black" d="M493.048 300.214C496.092 318.775 493.048 336.287 486.856 352.458C479.424 371.865 462.892 392.442 425.438 403.259C387.983 414.075 337.21 411.255 323.114 352.458" stroke="black" stroke-width="0.7"/>
<path id="line-bottom-black" d="M489.512 377.193C481.944 386.088 472.859 394.674 458.797 400.025" stroke="black" stroke-width="0.3"/>
<path id="line-top-black" d="M401.922 398.087C389.812 400.568 383.933 400.346 373.948 399.125" stroke="black" stroke-width="0.3"/>
</g>
<g id="lines-white">
<path id="line-main-white" d="M493.048 300.214C496.092 318.775 493.048 336.287 486.856 352.458C479.424 371.865 462.892 392.442 425.438 403.259C387.983 414.075 337.21 411.255 323.114 352.458" stroke="white" stroke-width="0.7"/>
<path id="line-bottom-white" d="M489.512 377.193C481.944 386.088 472.859 394.674 458.797 400.025" stroke="white" stroke-width="0.3"/>
<path id="line-top-white" d="M401.922 398.087C389.812 400.568 383.933 400.346 373.948 399.125" stroke="white" stroke-width="0.3"/>
</g>
<g id="logo-black">
<path id="s-black" d="M341.149 282.778C341.564 281.783 342.429 281.183 343.219 280.882C345.589 279.978 348.356 284.278 348.356 280.882V277.485C348.356 275.774 345.055 274.883 341.495 275.35C338.167 275.787 335.494 277.966 334.771 280.882C334.028 283.875 335.102 287.389 337.134 289.743C338.138 290.907 340.238 292.106 341.564 292.769C344.96 294.467 344.96 296.166 344.637 297.444C344.262 298.929 341.949 298.933 339.866 297.864C337.783 296.794 335.975 293.775 335.649 294.486C334.83 296.274 334.634 296.806 333.848 299.131C333.153 301.185 338.763 304.124 342.16 304.124C347.255 304.124 350.234 300.223 350.234 296.334C350.234 292.445 349.417 291.256 346.658 289.373C344.637 287.992 342.777 287.202 341.749 286.159C340.721 285.117 340.543 284.232 341.149 282.778Z" fill="black"/>
<path id="i1-black" d="M356.802 302.749H352.465C351.605 302.749 351.543 302.681 352.106 289.085C352.668 275.489 352.771 275.489 353.375 275.489H356.015C357.153 275.489 357.078 275.489 357.423 289.085C357.769 302.681 357.649 302.749 356.802 302.749Z" fill="black"/>
<path id="c-black" d="M375.409 283.018C374.606 286.051 370.72 281.954 366.489 285.24C363.849 287.29 364.042 292.669 366.088 294.603C370.78 299.038 375.475 294.838 375.475 297.121C375.475 299.405 375.475 299.341 375.475 301.253C375.475 303.164 365.205 304.086 360.783 297.651C357.708 293.176 356.928 284.018 362.608 280.081C368.872 275.74 376.46 278.03 376.019 280.298C375.759 281.635 375.767 281.665 375.409 283.018Z" fill="black"/>
<path id="i2-black" d="M383.227 302.749H378.889C378.03 302.749 377.449 302.693 378.012 291.323C378.574 279.954 378.285 279.954 378.889 279.954H382.837C383.976 279.954 383.808 279.954 384.154 291.323C384.499 302.693 384.073 302.749 383.227 302.749Z" fill="black"/>
<path id="l-black" d="M386.558 301.552C386.559 275.737 385.638 275.455 386.865 275.455C388.812 275.455 389.383 275.455 390.51 275.455C391.637 275.455 391.013 277.048 391.526 297.157C391.531 297.364 393.554 297.157 401.481 297.157C401.826 297.157 401.89 297.871 401.89 299.837C401.89 302.143 401.947 302.989 401.481 302.978C389.693 302.706 386.558 303.426 386.558 301.552Z" fill="black"/>
<path id="i3-black" d="M404.714 302.715H409.468C410.328 302.715 410.526 302.647 410.167 289.051C409.807 275.455 409.611 275.455 409.007 275.455H405.918C404.78 275.455 404.574 275.455 404.229 289.051C403.884 302.647 403.867 302.715 404.714 302.715Z" fill="black"/>
<path id="a-black" fill-rule="evenodd" clip-rule="evenodd" d="M411.29 302.477C411.192 272.733 411.192 272.733 413.042 272.733C430.093 272.733 430.093 272.733 430.171 274.542L430.172 274.568C431.34 301.364 431.443 303.377 430.909 303.563C430.865 303.578 430.817 303.581 430.764 303.584C425.026 303.953 425.025 303.936 424.996 303.087L424.996 303.074C424.59 291.243 424.577 291.243 424.405 291.243C417.904 291.243 417.904 291.257 417.904 291.429C417.904 303.28 417.904 303.28 417.276 303.28C412.533 303.28 411.549 303.28 411.344 302.881C411.29 302.776 411.29 302.644 411.29 302.477ZM418.001 280.584V285.489C418.001 285.677 418.153 285.829 418.34 285.829H423.456C423.644 285.829 423.796 285.677 423.796 285.489V281.053C423.796 280.878 423.662 280.731 423.487 280.715L418.371 280.245C418.172 280.227 418.001 280.384 418.001 280.584Z" fill="black"/>
<path id="n1-black" d="M434.128 275.304C432.085 273.511 431.921 276.756 432.823 302.368C432.849 303.098 435.614 302.84 437.55 302.84C438.444 302.84 438.184 301.25 438.452 287.198C438.467 286.425 441.803 290.993 454.954 303.313C455.926 304.224 457.564 303.477 457.564 279.876C457.564 278.517 457.564 278.517 453.044 278.517L453.023 278.517C451.904 278.517 451.852 278.517 451.852 291.576C451.852 292.046 449.514 288.813 434.128 275.304Z" fill="black"/>
<path id="d-black" fill-rule="evenodd" clip-rule="evenodd" d="M335.251 331.989C344.261 332.942 349.491 327.117 350.195 319.298C350.931 311.112 347.856 304.052 335.251 305.091C335.248 305.091 335.245 305.092 335.242 305.092C334.519 305.151 334.418 305.16 334.518 318.345C334.518 331.912 334.522 331.912 335.243 331.988L335.251 331.989ZM339.755 326.214C340.81 326.413 344.304 322.633 344.694 319.255C345.226 314.64 344.821 312.03 339.755 311.039C339.526 310.995 339.492 311.047 339.524 318.517C339.524 326.17 339.528 326.171 339.755 326.214Z" fill="black"/>
<path id="o-black" fill-rule="evenodd" clip-rule="evenodd" d="M351.628 317.484C352.303 311.649 356.742 306.757 362.599 307.195C368.416 307.629 371.956 313.015 371.943 318.849C371.931 324.666 368.392 329.919 362.599 330.45C355.994 331.055 350.865 324.073 351.628 317.484ZM357.47 317.815C357.794 315.015 359.924 312.667 362.735 312.877C365.527 313.086 367.225 315.671 367.219 318.47C367.213 321.262 365.515 323.783 362.735 324.037C359.565 324.328 357.104 320.977 357.47 317.815Z" fill="black"/>
<path id="n2-black" d="M375.422 305.244C373.38 303.451 373.216 306.696 374.118 332.307C374.144 333.037 376.908 332.78 378.845 332.78C379.739 332.78 379.479 331.19 379.747 317.138C379.762 316.365 383.097 320.933 396.248 333.253C397.221 334.163 398.858 333.416 398.858 309.815C398.858 308.457 398.858 308.457 394.339 308.457L394.318 308.457C393.199 308.456 393.147 308.456 393.147 321.515C393.147 321.986 390.809 318.753 375.422 305.244Z" fill="black"/>
<path id="k-black" d="M400.208 333.333C400.21 304.835 400.433 304.969 401.406 304.835C404.219 304.445 406.6 304.835 406.6 305.699C406.6 309.881 406.812 315.391 407.05 314.996C412.776 305.474 412.936 305.474 413.644 305.474C419.434 305.474 420.961 305.848 420.164 306.911C411.058 319.063 411.129 319.263 411.346 319.628C417.933 330.705 420.805 333.561 418.909 333.838C416.454 334.198 413.72 334.148 413.319 333.498C408.31 325.395 406.855 321.364 406.855 322.741C406.855 333.333 407.254 333.614 406.017 333.838C404.894 334.042 400.208 334.238 400.208 333.333Z" fill="black"/>
<path id="e-black" d="M422.142 305.216C421.72 305.229 420.977 305.971 422.716 333.078L422.716 333.087C422.766 333.862 422.766 333.863 435.818 333.863C436.653 333.863 436.653 330.561 436.653 328.357C436.653 327.433 436.653 327.433 427.381 327.433C427.005 327.433 427.005 327.344 427.005 321.811V321.811C427.005 321.586 427.005 321.586 434.554 321.586C435.196 321.586 435.196 321.586 435.196 316.26C435.196 315.734 435.196 315.734 427.005 315.734C426.628 315.734 426.628 315.734 426.866 310.522L426.873 310.378C426.889 310.018 427.308 310.027 434.887 310.189L435.196 310.196C435.506 310.203 435.524 306.92 435.524 305.216C435.524 304.766 435.524 304.789 422.142 305.216Z" fill="black"/>
<path id="y-black" d="M444.118 319.405C435.519 306.581 435.401 305.066 438.34 305.233C441.782 305.429 442.021 305.179 442.394 305.776C446.895 312.99 447.134 314.864 447.437 314.426C452.591 306.985 452.59 306.906 453.844 307.081C458.638 307.749 458.766 307.822 458.294 308.513C452.698 316.706 449.871 319.132 449.871 319.405C449.871 332.996 449.814 332.996 449.441 332.996C444.386 332.996 444.32 332.996 444.32 332.319C444.32 320.838 444.335 319.729 444.118 319.405Z" fill="black"/>
</g>
<g id="logo-white">
<path id="s-white" d="M341.149 282.778C341.564 281.783 342.429 281.183 343.219 280.882C345.589 279.978 348.356 284.278 348.356 280.882V277.485C348.356 275.774 345.055 274.883 341.495 275.35C338.167 275.787 335.494 277.966 334.771 280.882C334.028 283.875 335.102 287.389 337.134 289.743C338.138 290.907 340.238 292.106 341.564 292.769C344.96 294.467 344.96 296.166 344.637 297.444C344.262 298.929 341.949 298.933 339.866 297.864C337.783 296.794 335.975 293.775 335.649 294.486C334.83 296.274 334.634 296.806 333.848 299.131C333.153 301.185 338.763 304.124 342.16 304.124C347.255 304.124 350.234 300.223 350.234 296.334C350.234 292.445 349.417 291.256 346.658 289.373C344.637 287.992 342.777 287.202 341.749 286.159C340.721 285.117 340.543 284.232 341.149 282.778Z" fill="white"/>
<path id="i1-white" d="M356.802 302.749H352.465C351.605 302.749 351.543 302.681 352.106 289.085C352.668 275.489 352.771 275.489 353.375 275.489H356.015C357.153 275.489 357.078 275.489 357.423 289.085C357.769 302.681 357.649 302.749 356.802 302.749Z" fill="white"/>
<path id="c-white" d="M375.409 283.018C374.606 286.051 370.72 281.954 366.489 285.24C363.849 287.29 364.042 292.669 366.088 294.603C370.78 299.038 375.475 294.838 375.475 297.121C375.475 299.405 375.475 299.341 375.475 301.253C375.475 303.164 365.205 304.086 360.783 297.651C357.708 293.176 356.928 284.018 362.608 280.081C368.872 275.74 376.46 278.03 376.019 280.298C375.759 281.635 375.767 281.665 375.409 283.018Z" fill="white"/>
<path id="i2-white" d="M383.227 302.749H378.889C378.03 302.749 377.449 302.693 378.012 291.323C378.574 279.954 378.285 279.954 378.889 279.954H382.837C383.976 279.954 383.808 279.954 384.154 291.323C384.499 302.693 384.073 302.749 383.227 302.749Z" fill="white"/>
<path id="l-white" d="M386.558 301.552C386.559 275.737 385.638 275.455 386.865 275.455C388.812 275.455 389.383 275.455 390.51 275.455C391.637 275.455 391.013 277.048 391.526 297.157C391.531 297.364 393.554 297.157 401.481 297.157C401.826 297.157 401.89 297.871 401.89 299.837C401.89 302.143 401.947 302.989 401.481 302.978C389.693 302.706 386.558 303.426 386.558 301.552Z" fill="white"/>
<path id="i3-white" d="M404.714 302.715H409.468C410.328 302.715 410.526 302.647 410.167 289.051C409.807 275.455 409.611 275.455 409.007 275.455H405.918C404.78 275.455 404.574 275.455 404.229 289.051C403.884 302.647 403.867 302.715 404.714 302.715Z" fill="white"/>
<path id="a-white" fill-rule="evenodd" clip-rule="evenodd" d="M411.29 302.477C411.193 272.733 411.193 272.733 413.042 272.733C430.093 272.733 430.093 272.733 430.171 274.542L430.172 274.568C431.34 301.364 431.443 303.377 430.91 303.563C430.865 303.578 430.817 303.581 430.764 303.584C425.026 303.953 425.025 303.936 424.996 303.087L424.996 303.074C424.591 291.243 424.577 291.243 424.405 291.243C417.904 291.243 417.904 291.257 417.904 291.429C417.904 303.28 417.904 303.28 417.276 303.28C412.533 303.28 411.55 303.28 411.345 302.881C411.291 302.776 411.29 302.644 411.29 302.477ZM418.001 280.584V285.489C418.001 285.677 418.153 285.829 418.341 285.829H423.456C423.644 285.829 423.796 285.677 423.796 285.489V281.053C423.796 280.878 423.662 280.731 423.487 280.715L418.372 280.245C418.173 280.227 418.001 280.384 418.001 280.584Z" fill="white"/>
<path id="n1-white" d="M434.128 275.304C432.085 273.511 431.921 276.756 432.823 302.368C432.849 303.098 435.614 302.84 437.55 302.84C438.444 302.84 438.184 301.25 438.452 287.198C438.467 286.425 441.803 290.993 454.954 303.313C455.926 304.224 457.564 303.477 457.564 279.876C457.564 278.517 457.564 278.517 453.044 278.517L453.023 278.517C451.904 278.517 451.852 278.517 451.852 291.576C451.852 292.046 449.514 288.813 434.128 275.304Z" fill="white"/>
<path id="d-white" fill-rule="evenodd" clip-rule="evenodd" d="M335.251 331.989C344.261 332.942 349.491 327.117 350.195 319.298C350.931 311.112 347.856 304.051 335.251 305.091C335.248 305.091 335.245 305.092 335.242 305.092C334.519 305.151 334.418 305.159 334.518 318.345C334.518 331.911 334.522 331.912 335.243 331.988L335.251 331.989ZM339.755 326.214C340.81 326.413 344.304 322.633 344.694 319.255C345.226 314.64 344.821 312.03 339.755 311.039C339.526 310.994 339.492 311.046 339.524 318.516C339.524 326.17 339.528 326.171 339.755 326.214Z" fill="white"/>
<path id="o-white" fill-rule="evenodd" clip-rule="evenodd" d="M351.628 317.484C352.303 311.649 356.742 306.757 362.599 307.195C368.416 307.629 371.956 313.015 371.943 318.848C371.931 324.666 368.392 329.919 362.599 330.45C355.994 331.054 350.865 324.073 351.628 317.484ZM357.47 317.815C357.794 315.015 359.924 312.667 362.735 312.877C365.527 313.086 367.225 315.67 367.219 318.47C367.213 321.261 365.515 323.783 362.735 324.037C359.565 324.327 357.104 320.977 357.47 317.815Z" fill="white"/>
<path id="n2-white" d="M375.422 305.244C373.38 303.451 373.216 306.696 374.118 332.307C374.144 333.037 376.908 332.78 378.845 332.78C379.739 332.78 379.479 331.19 379.747 317.138C379.762 316.365 383.097 320.933 396.248 333.253C397.221 334.163 398.858 333.416 398.858 309.815C398.858 308.457 398.858 308.457 394.339 308.457L394.318 308.457C393.199 308.456 393.147 308.456 393.147 321.515C393.147 321.986 390.809 318.753 375.422 305.244Z" fill="white"/>
<path id="k-white" d="M400.208 333.333C400.21 304.835 400.433 304.969 401.406 304.835C404.219 304.445 406.6 304.835 406.6 305.699C406.6 309.881 406.812 315.391 407.05 314.996C412.776 305.474 412.936 305.474 413.644 305.474C419.434 305.474 420.961 305.848 420.164 306.911C411.058 319.063 411.129 319.263 411.346 319.628C417.933 330.705 420.805 333.561 418.909 333.838C416.454 334.198 413.72 334.148 413.319 333.498C408.31 325.395 406.855 321.364 406.855 322.741C406.855 333.333 407.254 333.614 406.017 333.838C404.894 334.042 400.208 334.238 400.208 333.333Z" fill="white"/>
<path id="e-white" d="M422.142 305.216C421.72 305.229 420.977 305.971 422.716 333.078L422.716 333.087C422.766 333.862 422.766 333.863 435.818 333.863C436.653 333.863 436.653 330.561 436.653 328.357C436.653 327.433 436.653 327.433 427.381 327.433C427.005 327.433 427.005 327.344 427.005 321.811V321.811C427.005 321.586 427.005 321.586 434.554 321.586C435.196 321.586 435.196 321.586 435.196 316.26C435.196 315.734 435.196 315.734 427.005 315.734C426.628 315.734 426.628 315.734 426.866 310.522L426.873 310.378C426.889 310.018 427.308 310.027 434.887 310.189L435.196 310.196C435.506 310.203 435.524 306.92 435.524 305.216C435.524 304.766 435.524 304.789 422.142 305.216Z" fill="white"/>
<path id="y-white" d="M444.118 319.405C435.519 306.581 435.401 305.066 438.34 305.233C441.782 305.429 442.021 305.179 442.394 305.776C446.895 312.99 447.134 314.864 447.437 314.426C452.591 306.985 452.59 306.906 453.844 307.081C458.638 307.749 458.766 307.822 458.294 308.513C452.698 316.706 449.871 319.132 449.871 319.405C449.871 332.996 449.814 332.996 449.441 332.996C444.386 332.996 444.32 332.996 444.32 332.319C444.32 320.838 444.335 319.729 444.118 319.405Z" fill="white"/>
</g>
<g id="logo-pink">
<path id="s-pink" d="M341.149 282.778C341.564 281.783 342.429 281.183 343.219 280.882C345.589 279.978 348.356 284.278 348.356 280.882V277.485C348.356 275.774 345.055 274.883 341.495 275.35C338.167 275.787 335.494 277.966 334.771 280.882C334.028 283.875 335.102 287.389 337.134 289.743C338.138 290.907 340.238 292.106 341.564 292.769C344.96 294.467 344.96 296.166 344.637 297.444C344.262 298.929 341.949 298.933 339.866 297.864C337.783 296.794 335.975 293.775 335.649 294.486C334.83 296.274 334.634 296.806 333.848 299.131C333.153 301.185 338.763 304.124 342.16 304.124C347.255 304.124 350.234 300.223 350.234 296.334C350.234 292.445 349.417 291.256 346.658 289.373C344.637 287.992 342.777 287.202 341.749 286.159C340.721 285.117 340.543 284.232 341.149 282.778Z" fill="#ECB99F"/>
<path id="i1-pink" d="M356.802 302.749H352.465C351.605 302.749 351.543 302.681 352.106 289.085C352.668 275.489 352.771 275.489 353.375 275.489H356.015C357.153 275.489 357.078 275.489 357.423 289.085C357.769 302.681 357.649 302.749 356.802 302.749Z" fill="#ECB99F"/>
<path id="c-pink" d="M375.409 283.018C374.606 286.051 370.72 281.954 366.489 285.24C363.849 287.29 364.042 292.669 366.088 294.603C370.78 299.038 375.475 294.838 375.475 297.121C375.475 299.405 375.475 299.341 375.475 301.253C375.475 303.164 365.205 304.086 360.783 297.651C357.708 293.176 356.928 284.018 362.608 280.081C368.872 275.74 376.46 278.03 376.019 280.298C375.759 281.635 375.767 281.665 375.409 283.018Z" fill="#ECB99F"/>
<path id="i2-pink" d="M383.227 302.749H378.889C378.03 302.749 377.449 302.693 378.012 291.323C378.574 279.954 378.285 279.954 378.889 279.954H382.837C383.976 279.954 383.808 279.954 384.154 291.323C384.499 302.693 384.073 302.749 383.227 302.749Z" fill="#ECB99F"/>
<path id="l-pink" d="M386.558 301.552C386.559 275.737 385.638 275.455 386.865 275.455C388.812 275.455 389.383 275.455 390.51 275.455C391.637 275.455 391.013 277.048 391.526 297.157C391.531 297.364 393.554 297.157 401.481 297.157C401.826 297.157 401.89 297.871 401.89 299.837C401.89 302.143 401.947 302.989 401.481 302.978C389.693 302.706 386.558 303.426 386.558 301.552Z" fill="#ECB99F"/>
<path id="i3-pink" d="M404.714 302.715H409.468C410.328 302.715 410.526 302.647 410.167 289.051C409.807 275.455 409.611 275.455 409.007 275.455H405.918C404.78 275.455 404.574 275.455 404.229 289.051C403.884 302.647 403.867 302.715 404.714 302.715Z" fill="#ECB99F"/>
<path id="a-pink" fill-rule="evenodd" clip-rule="evenodd" d="M411.29 302.477C411.193 272.733 411.193 272.733 413.042 272.733C430.093 272.733 430.093 272.733 430.171 274.542L430.172 274.568C431.34 301.364 431.443 303.377 430.91 303.563C430.865 303.578 430.817 303.581 430.764 303.584C425.026 303.953 425.025 303.936 424.996 303.087L424.996 303.074C424.591 291.243 424.577 291.243 424.405 291.243C417.904 291.243 417.904 291.257 417.904 291.429C417.904 303.28 417.904 303.28 417.276 303.28C412.533 303.28 411.55 303.28 411.345 302.881C411.291 302.776 411.29 302.644 411.29 302.477ZM418.001 280.584V285.489C418.001 285.677 418.153 285.829 418.341 285.829H423.456C423.644 285.829 423.796 285.677 423.796 285.489V281.053C423.796 280.878 423.662 280.731 423.487 280.715L418.372 280.245C418.173 280.227 418.001 280.384 418.001 280.584Z" fill="#ECB99F"/>
<path id="n1-pink" d="M434.128 275.304C432.085 273.511 431.921 276.756 432.823 302.368C432.849 303.098 435.614 302.84 437.55 302.84C438.444 302.84 438.184 301.25 438.452 287.198C438.467 286.425 441.803 290.993 454.954 303.313C455.926 304.224 457.564 303.477 457.564 279.876C457.564 278.517 457.564 278.517 453.044 278.517L453.023 278.517C451.904 278.517 451.852 278.517 451.852 291.576C451.852 292.046 449.514 288.813 434.128 275.304Z" fill="#ECB99F"/>
<path id="d-pink" fill-rule="evenodd" clip-rule="evenodd" d="M335.251 331.989C344.261 332.942 349.491 327.117 350.195 319.298C350.931 311.112 347.856 304.051 335.251 305.091C335.248 305.091 335.245 305.092 335.242 305.092C334.519 305.151 334.418 305.159 334.518 318.345C334.518 331.911 334.522 331.912 335.243 331.988L335.251 331.989ZM339.755 326.214C340.81 326.413 344.304 322.633 344.694 319.255C345.226 314.64 344.821 312.03 339.755 311.039C339.526 310.994 339.492 311.046 339.524 318.516C339.524 326.17 339.528 326.171 339.755 326.214Z" fill="#ECB99F"/>
<path id="o-pink" fill-rule="evenodd" clip-rule="evenodd" d="M351.628 317.484C352.303 311.649 356.742 306.757 362.599 307.195C368.416 307.629 371.956 313.015 371.943 318.848C371.931 324.666 368.392 329.919 362.599 330.45C355.994 331.054 350.865 324.073 351.628 317.484ZM357.47 317.815C357.794 315.015 359.924 312.667 362.735 312.877C365.527 313.086 367.225 315.67 367.219 318.47C367.213 321.261 365.515 323.783 362.735 324.037C359.565 324.327 357.104 320.977 357.47 317.815Z" fill="#ECB99F"/>
<path id="n2-pink" d="M375.422 305.244C373.38 303.451 373.216 306.696 374.118 332.307C374.144 333.037 376.908 332.78 378.845 332.78C379.739 332.78 379.479 331.19 379.747 317.138C379.762 316.365 383.097 320.933 396.248 333.253C397.221 334.163 398.858 333.416 398.858 309.815C398.858 308.457 398.858 308.457 394.339 308.457L394.318 308.457C393.199 308.456 393.147 308.456 393.147 321.515C393.147 321.986 390.809 318.753 375.422 305.244Z" fill="#ECB99F"/>
<path id="k-pink" d="M400.208 333.333C400.21 304.835 400.433 304.969 401.406 304.835C404.219 304.445 406.6 304.835 406.6 305.699C406.6 309.881 406.812 315.391 407.05 314.996C412.776 305.474 412.936 305.474 413.644 305.474C419.434 305.474 420.961 305.848 420.164 306.911C411.058 319.063 411.129 319.263 411.346 319.628C417.933 330.705 420.805 333.561 418.909 333.838C416.454 334.198 413.72 334.148 413.319 333.498C408.31 325.395 406.855 321.364 406.855 322.741C406.855 333.333 407.254 333.614 406.017 333.838C404.894 334.042 400.208 334.238 400.208 333.333Z" fill="#ECB99F"/>
<path id="e-pink" d="M422.142 305.216C421.72 305.229 420.977 305.971 422.716 333.078L422.716 333.087C422.766 333.862 422.766 333.863 435.818 333.863C436.653 333.863 436.653 330.561 436.653 328.357C436.653 327.433 436.653 327.433 427.381 327.433C427.005 327.433 427.005 327.344 427.005 321.811V321.811C427.005 321.586 427.005 321.586 434.554 321.586C435.196 321.586 435.196 321.586 435.196 316.26C435.196 315.734 435.196 315.734 427.005 315.734C426.628 315.734 426.628 315.734 426.866 310.522L426.873 310.378C426.889 310.018 427.308 310.027 434.887 310.189L435.196 310.196C435.506 310.203 435.524 306.92 435.524 305.216C435.524 304.766 435.524 304.789 422.142 305.216Z" fill="#ECB99F"/>
<path id="y-pink" d="M444.118 319.405C435.519 306.581 435.401 305.066 438.34 305.233C441.782 305.429 442.021 305.179 442.394 305.776C446.895 312.99 447.134 314.864 447.437 314.426C452.591 306.985 452.59 306.906 453.844 307.081C458.638 307.749 458.766 307.822 458.294 308.513C452.698 316.706 449.871 319.132 449.871 319.405C449.871 332.996 449.814 332.996 449.441 332.996C444.386 332.996 444.32 332.996 444.32 332.319C444.32 320.838 444.335 319.729 444.118 319.405Z" fill="#ECB99F"/>
</g>
<circle id="ball" cx="393.437" cy="294.856" r="6.88295" fill="black"/>
<circle id="cirlcle-path" cx="393.436" cy="294.856" r="212.311" fill="#FF0303"/>
</g>
</svg>
