<svg width="842" height="595" viewBox="0 0 842 595" fill="none" xmlns="http://www.w3.org/2000/svg">
<g id="frame-3">
<rect width="842" height="595" fill="white"/>
<rect id="Rectangle1" x="171" y="97" width="100" height="100" stroke="black" stroke-width="3"/>
<rect id="Rectangle2" x="271" y="97" width="100" height="100" fill="black" stroke="black" stroke-width="3"/>
<rect id="Rectangle3" x="371" y="97" width="100" height="100" stroke="black" stroke-width="3"/>
<rect id="Rectangle4" x="471" y="97" width="100" height="100" fill="black" stroke="black" stroke-width="3"/>
<rect id="Rectangle5" x="571" y="97" width="100" height="100" stroke="black" stroke-width="3"/>
<rect id="Rectangle6" x="171" y="197" width="100" height="100" fill="black" stroke="black" stroke-width="3"/>
<rect id="Rectangle7" x="271" y="197" width="100" height="100" stroke="black" stroke-width="3"/>
<rect id="Rectangle8" x="371" y="197" width="100" height="100" fill="black" stroke="black" stroke-width="3"/>
<rect id="Rectangle9" x="471" y="197" width="100" height="100" stroke="black" stroke-width="3"/>
<rect id="Rectangle10" x="571" y="197" width="100" height="100" fill="black" stroke="black" stroke-width="3"/>
<rect id="Rectangle11" x="171" y="297" width="100" height="100" stroke="black" stroke-width="3"/>
<rect id="Rectangle12" x="271" y="297" width="100" height="100" fill="black" stroke="black" stroke-width="3"/>
<rect id="Rectangle13" x="371" y="297" width="100" height="100" stroke="black" stroke-width="3"/>
<rect id="Rectangle14" x="471" y="297" width="100" height="100" fill="black" stroke="black" stroke-width="3"/>
<rect id="Rectangle15" x="571" y="297" width="100" height="100" stroke="black" stroke-width="3"/>
<rect id="Rectangle16" x="171" y="397" width="100" height="100" fill="black" stroke="black" stroke-width="3"/>
<rect id="Rectangle17" x="271" y="397" width="100" height="100" stroke="black" stroke-width="3"/>
<rect id="Rectangle18" x="371" y="397" width="100" height="100" fill="black" stroke="black" stroke-width="3"/>
<rect id="Rectangle19" x="471" y="397" width="100" height="100" stroke="black" stroke-width="3"/>
<rect id="Rectangle20" x="571" y="397" width="100" height="100" fill="black" stroke="black" stroke-width="3"/>
</g>
</svg>
